<?xml version="1.0" encoding="UTF-8" standalone="no"?>
<!-- Created with Inkscape (http://www.inkscape.org/) -->

<svg
   xmlns:dc="http://purl.org/dc/elements/1.1/"
   xmlns:cc="http://creativecommons.org/ns#"
   xmlns:rdf="http://www.w3.org/1999/02/22-rdf-syntax-ns#"
   xmlns:svg="http://www.w3.org/2000/svg"
   xmlns="http://www.w3.org/2000/svg"
   xmlns:sodipodi="http://sodipodi.sourceforge.net/DTD/sodipodi-0.dtd"
   xmlns:inkscape="http://www.inkscape.org/namespaces/inkscape"
   width="282.22223mm"
   height="244.70329mm"
   viewBox="0 0 1000 867.05891"
   id="svg4272"
   version="1.1"
   inkscape:version="0.91 r13725"
   sodipodi:docname="Windows Logo 1995.svg">
  <defs
     id="defs4274" />
  <sodipodi:namedview
     id="base"
     pagecolor="#ffffff"
     bordercolor="#666666"
     borderopacity="1.0"
     inkscape:pageopacity="0.0"
     inkscape:pageshadow="2"
     inkscape:zoom="1.4"
     inkscape:cx="714.93708"
     inkscape:cy="488.93225"
     inkscape:document-units="px"
     inkscape:current-layer="layer1"
     showgrid="false"
     fit-margin-top="0"
     fit-margin-left="0"
     fit-margin-right="0"
     fit-margin-bottom="0"
     inkscape:window-width="1366"
     inkscape:window-height="705"
     inkscape:window-x="-8"
     inkscape:window-y="-8"
     inkscape:window-maximized="1" />
  <metadata
     id="metadata4277">
    <rdf:RDF>
      <cc:Work
         rdf:about="">
        <dc:format>image/svg+xml</dc:format>
        <dc:type
           rdf:resource="http://purl.org/dc/dcmitype/StillImage" />
        <dc:title></dc:title>
      </cc:Work>
    </rdf:RDF>
  </metadata>
  <g
     inkscape:label="Layer 1"
     inkscape:groupmode="layer"
     id="layer1"
     transform="translate(-265.33769,281.58699)">
    <g
       id="g1324"
       transform="matrix(9.1470732,0,0,9.1470732,1731.4787,46.199847)">
      <g
         id="g1272">
        <path
           style="stroke-width:4.69284821"
           d="m -75.884393,58.951009 24.92372,-60.0074595 c -10.93434,-12.1122405 -24.53421,-18.0486905 -40.86532,-17.7389605 l -25.083277,60.56121 c 15.31277,-2.03201 28.903257,3.7402 41.024877,17.18521 z"
           id="path4518-2"
           inkscape:connector-curvature="0" />
        <path
           style="stroke-width:4.69284821"
           d="m -93.238543,-18.795411 -9.221447,0.54437 -3.12543,7.65873 9.221437,-0.86349 z"
           id="path4520-4"
           inkscape:connector-curvature="0" />
        <path
           style="stroke-width:4.69284821"
           d="m -96.908353,-10.118341 -9.146357,0.6241505 -3.19583,7.65873 9.291837,-0.85879 z"
           id="path4522-2"
           inkscape:connector-curvature="0" />
        <path
           style="stroke-width:4.69284821"
           d="m -100.50307,-1.3661705 -9.13697,0.53967 -3.20991,7.58834 9.29653,-0.70862 z"
           id="path4524-0"
           inkscape:connector-curvature="0" />
        <path
           style="stroke-width:4.69284821"
           d="m -104.0931,7.3812995 -9.22614,0.54906 -3.12074,7.5789495 9.22145,-0.78371 z"
           id="path4526-9"
           inkscape:connector-curvature="0" />
        <path
           style="stroke-width:4.69284821"
           d="m -107.68782,15.973899 -9.22145,0.54907 -3.13013,7.58364 9.29654,-0.78371 z"
           id="path4528-6"
           inkscape:connector-curvature="0" />
        <path
           style="stroke-width:4.69284821"
           d="m -111.36232,24.880929 -9.22614,0.55375 -3.12074,7.65873 9.22144,-0.7837 z"
           id="path4530-0"
           inkscape:connector-curvature="0" />
        <path
           style="stroke-width:4.69284821"
           d="m -115.04151,33.637779 -9.14167,0.55376 -3.20052,7.64934 9.29183,-0.86348 z"
           id="path4532-1"
           inkscape:connector-curvature="0" />
        <path
           style="stroke-width:4.69284821"
           d="m -112.14602,-19.189611 -2.89549,6.95949 8.51752,-0.70392 2.89549,-6.87033 z"
           id="path4534-2"
           inkscape:connector-curvature="0" />
        <path
           d="m -110.11402,-4.1068005 2.81571,-6.8750205 -8.51752,0.61946 -2.89549,6.9548005 z"
           id="path4536-6"
           inkscape:connector-curvature="0"
           style="fill:#ff3300;stroke-width:4.69284821" />
        <path
           d="m -113.63835,4.3309495 2.89549,-6.95481 -8.59261,0.69924 -2.81571,6.87502 z"
           id="path4538-8"
           inkscape:connector-curvature="0"
           style="fill:#ff3300;stroke-width:4.69284821" />
        <path
           style="stroke-width:4.69284821"
           d="m -122.93488,6.8369295 -2.97058,6.9547995 8.67708,-0.70393 2.81101,-6.9547995 z"
           id="path4540-2"
           inkscape:connector-curvature="0" />
        <path
           d="m -126.68447,15.659479 -2.81102,6.95011 8.59261,-0.68516 2.8204,-6.96418 z"
           id="path4542-0"
           inkscape:connector-curvature="0"
           style="fill:#02a5ff;stroke-width:4.69284821" />
        <path
           d="m -130.19941,24.106609 -2.81102,6.95011 8.60199,-0.70393 2.8861,-6.9548 z"
           id="path4544-0"
           inkscape:connector-curvature="0"
           style="fill:#02a5ff;stroke-width:4.69284821" />
        <path
           style="stroke-width:4.69284821"
           d="m -128.08763,39.100259 2.8861,-6.87502 -8.50813,0.61945 -2.89549,6.87972 z"
           id="path4546-0"
           inkscape:connector-curvature="0" />
        <path
           style="stroke-width:4.69284821"
           d="m -112.53553,-23.014281 -7.18945,0.31442 -2.57637,6.17579 7.26453,-0.3989 z"
           id="path4548-1"
           inkscape:connector-curvature="0" />
        <path
           d="m -123.39948,-13.797531 -2.57637,6.0960105 7.26453,-0.38951 2.51067,-6.0209205 z"
           id="path4550-3"
           inkscape:connector-curvature="0"
           style="fill:#ff3300;stroke-width:4.69284821" />
        <path
           d="m -126.91442,-5.4301805 -2.50129,6.17109 7.26453,-0.3895 2.50129,-6.02093 z"
           id="path4552-5"
           inkscape:connector-curvature="0"
           style="fill:#ff3300;stroke-width:4.69284821" />
        <path
           style="stroke-width:4.69284821"
           d="m -123.3197,3.0826495 -7.26453,0.22995 -2.50128,6.17579 7.27391,-0.38482 z"
           id="path4554-3"
           inkscape:connector-curvature="0" />
        <path
           d="m -134.25873,12.229009 -2.57637,6.17109 7.34431,-0.38481 2.49659,-6.09132 z"
           id="path4556-1"
           inkscape:connector-curvature="0"
           style="fill:#02a5ff;stroke-width:4.69284821" />
        <path
           d="m -137.70328,20.666749 -2.50129,6.01623 7.18945,-0.30503 2.57637,-6.09601 z"
           id="path4558-2"
           inkscape:connector-curvature="0"
           style="fill:#02a5ff;stroke-width:4.69284821" />
        <path
           style="stroke-width:4.69284821"
           d="m -136.60515,35.125419 2.50129,-6.09601 -7.18945,0.30972 -2.57637,6.08194 z"
           id="path4560-8"
           inkscape:connector-curvature="0" />
        <path
           style="stroke-width:4.69284821"
           d="m -126.91442,-25.285621 -1.79267,4.37843 5.7769,-0.23934 1.87714,-4.44882 z"
           id="path4562-4"
           inkscape:connector-curvature="0" />
        <path
           d="m -130.58423,-16.453681 -1.79736,4.37373 5.78159,-0.22525 1.87714,-4.45821 z"
           id="path4564-1"
           inkscape:connector-curvature="0"
           style="fill:#ff3300;stroke-width:4.69284821" />
        <path
           d="m -134.10386,-8.0863305 -1.79736,4.37842 5.86606,-0.15955 1.86775,-4.60838 z"
           id="path4566-4"
           inkscape:connector-curvature="0"
           style="fill:#ff3300;stroke-width:4.69284821" />
        <path
           style="stroke-width:4.69284821"
           d="m -131.83722,0.3514095 -5.86606,0.31442 -1.87244,4.37843 5.86606,-0.14548 z"
           id="path4568-2"
           inkscape:connector-curvature="0" />
        <path
           d="m -141.36839,9.4883895 -1.87245,4.4581995 5.94115,-0.23464 1.79736,-4.5379795 z"
           id="path4570-3"
           inkscape:connector-curvature="0"
           style="fill:#02a5ff;stroke-width:4.69284821" />
        <path
           d="m -144.88334,17.935509 -1.80205,4.45352 5.86606,-0.23465 1.79267,-4.53329 z"
           id="path4572-3"
           inkscape:connector-curvature="0"
           style="fill:#02a5ff;stroke-width:4.69284821" />
        <path
           style="stroke-width:4.69284821"
           d="m -148.55314,26.678289 -1.80675,4.45821 5.86137,-0.23465 1.87714,-4.5286 z"
           id="path4574-8"
           inkscape:connector-curvature="0" />
        <path
           style="stroke-width:4.69284821"
           d="m -129.49079,-27.857301 1.56272,-3.75428 -4.45352,0.62884 -1.48763,3.66981 z"
           id="path4576-1"
           inkscape:connector-curvature="0" />
        <path
           d="m -136.06078,-22.155491 -1.56272,3.67919 4.44882,-0.54906 1.56272,-3.82467 z"
           id="path4578-4"
           inkscape:connector-curvature="0"
           style="fill:#ff3300;stroke-width:4.69284821" />
        <path
           d="m -139.57572,-13.708361 -1.56272,3.6698 4.45351,-0.54437 1.6425,-3.82467 z"
           id="path4580-1"
           inkscape:connector-curvature="0"
           style="fill:#ff3300;stroke-width:4.69284821" />
        <path
           style="stroke-width:4.69284821"
           d="m -143.17045,-4.9655905 -1.56271,3.67919 4.37373,-0.54906 1.6425,-3.83406 z"
           id="path4582-2"
           inkscape:connector-curvature="0" />
        <path
           d="m -146.84025,3.8710395 -1.47825,3.66512 4.36904,-0.53967 1.56741,-3.74959 z"
           id="path4584-2"
           inkscape:connector-curvature="0"
           style="fill:#02a5ff;stroke-width:4.69284821" />
        <path
           d="m -150.35989,12.304099 -1.47825,3.6698 4.36905,-0.54437 1.56271,-3.82936 z"
           id="path4586-9"
           inkscape:connector-curvature="0"
           style="fill:#02a5ff;stroke-width:4.69284821" />
        <path
           style="stroke-width:4.69284821"
           d="m -154.0297,21.056259 -1.40785,3.59941 4.37843,-0.47867 1.56272,-3.82467 z"
           id="path4588-2"
           inkscape:connector-curvature="0" />
        <path
           style="stroke-width:4.69284821"
           d="m -137.70328,-35.520721 -1.08874,2.50129 3.3507,-0.0798 1.1779,-2.73593 z"
           id="path4590-5"
           inkscape:connector-curvature="0" />
        <path
           d="m -141.29331,-26.768561 -1.09343,2.58107 3.28499,-0.0798 1.08874,-2.73124 z"
           id="path4592-2"
           inkscape:connector-curvature="0"
           style="fill:#ff3300;stroke-width:4.69284821" />
        <path
           d="m -144.80825,-18.410601 -1.01835,2.58107 3.20052,0 1.09344,-2.73593 z"
           id="path4594-9"
           inkscape:connector-curvature="0"
           style="fill:#ff3300;stroke-width:4.69284821" />
        <path
           style="stroke-width:4.69284821"
           d="m -148.40766,-9.6490505 -1.08874,2.57168 3.2803,0 1.16852,-2.73593 z"
           id="path4596-1"
           inkscape:connector-curvature="0" />
        <path
           d="m -152.07747,-0.7467205 -1.09344,2.50129 3.28031,-0.0751 1.08874,-2.57637 z"
           id="path4598-2"
           inkscape:connector-curvature="0"
           style="fill:#02a5ff;stroke-width:4.69284821" />
        <path
           d="m -155.59241,7.6957195 -1.09344,2.5763695 3.285,-0.0751 1.16382,-2.6655395 z"
           id="path4600-1"
           inkscape:connector-curvature="0"
           style="fill:#02a5ff;stroke-width:4.69284821" />
        <path
           style="stroke-width:4.69284821"
           d="m -159.26691,16.447879 -1.01835,2.58576 3.28499,-0.0892 1.09343,-2.73593 z"
           id="path4602-1"
           inkscape:connector-curvature="0" />
        <path
           d="m -87.921543,10.502039 7.96845,-19.1421295 c -3.90445,-1.33277 -9.06658,-1.8724505 -15.46762,-1.7222705 l -7.898067,19.0717305 c 5.861367,-0.23933 11.023497,0.3989 15.397237,1.7926695 z"
           id="path4604-0"
           inkscape:connector-curvature="0"
           style="fill:#ff3300;stroke-width:4.69284821" />
        <path
           d="m -61.589973,0.5062695 c -3.59472,-3.6745 -7.81829,-6.25087 -12.65661,-7.81828 l -8.12802,19.6161095 5.46717,2.26664 c 2.1024,0.8541 4.5286,2.58107 7.33962,5.23722 z"
           id="path4606-4"
           inkscape:connector-curvature="0"
           style="fill:#66cc33;stroke-width:4.69284821" />
        <path
           d="m -71.904853,25.284509 c -3.59942,-3.6041 -7.89337,-6.02561 -12.81617,-7.349 l -7.81359,18.82771 c 4.5286,1.56741 8.75685,4.14378 12.82086,7.57895 z"
           id="path4608-8"
           inkscape:connector-curvature="0"
           style="fill:#ffcc00;stroke-width:4.69284821" />
        <path
           d="m -97.926693,34.731219 7.57425,-18.28334 c -4.76793,-1.56272 -9.915987,-2.18687 -15.387847,-1.79736 l -7.73381,18.52736 c 4.60838,-0.24872 9.76582,0.30973 15.547407,1.55334 z"
           id="path4610-7"
           inkscape:connector-curvature="0"
           style="fill:#02a5ff;stroke-width:4.69284821" />
      </g>
    </g>
  </g>
</svg>
